# xmcd CD database file
#
# Track frame offsets:
#	150
#	12707
#	26698
#	45337
#	64103
#	78068
#	96711
#	110601
#	128540
#	151238
#	169989
#	185408
#	204744
#
# Disc length: 2999 seconds
#
# Revision: 0
# Processed by: cddbd v1.5.2PL0 Copyright (c) Steve Scherf et al.
# Submitted via: CDex 1.51
#
DISCID=ab0bb50d
DTITLE=Cherry Pink - Knock on Wood
DYEAR=1900
DGENRE=Jazz
TTITLE0=The Lady is a Tramp
TTITLE1=Knock On Wood
TTITLE2=Makin Whoope
TTITLE3=I Am What I Am
TTITLE4=Salsa Amigo
TTITLE5=Route 66
TTITLE6=Without You
TTITLE7=Sunny
TTITLE8=Alright, Okay, You Win
TTITLE9=Harlem Nocturne
TTITLE10=I Will Survive
TTITLE11=Still Got The Blues
TTITLE12=Sing, Sing, Sing
EXTD=
EXTT0=
EXTT1=
EXTT2=
EXTT3=
EXTT4=
EXTT5=
EXTT6=
EXTT7=
EXTT8=
EXTT9=
EXTT10=
EXTT11=
EXTT12=
PLAYORDER=
